<?xml version="1.0" encoding="utf-8"?>
<!-- Generator: Adobe Illustrator 25.1.0, SVG Export Plug-In . SVG Version: 6.00 Build 0)  -->
<svg version="1.1" id="Camada_1" xmlns="http://www.w3.org/2000/svg" xmlns:xlink="http://www.w3.org/1999/xlink" x="0px" y="0px"
	 viewBox="0 0 757 768" style="enable-background:new 0 0 757 768;" xml:space="preserve">
<style type="text/css">
	.st0{display:none;fill:#90CAA7;stroke:#000000;stroke-miterlimit:10;}
	.st1{fill:#f6f6f6;}
</style>
<rect x="-306" class="st0" width="1366" height="768"/>
<g opacity="0.5" id="sYqlfI_1_">
	<g>
		<path class="st1" d="M9.38,383.61C9.56,179.93,175.12,14.7,378.83,14.88c203.61,0.18,368.99,165.86,368.78,369.45
			c-0.2,203.73-166.22,369.21-369.98,368.79C174.26,752.69,9.2,587.07,9.38,383.61z M138.98,400.12c-30.79,0-61.58,0.05-92.36-0.07
			c-3.43-0.01-4.38,0.75-4.15,4.37c2.95,47.7,15.49,92.71,37.47,135.11c68.39,131.94,216.18,203.91,362.03,175.35
			c88.26-17.28,158.68-63.36,211.05-136.39c36.95-51.52,56.86-109.38,61.39-172.61c0.34-4.68-0.81-5.89-5.58-5.88
			c-58.5,0.18-116.99,0.1-175.49,0.14c-3.82,0-8.47-1.51-11.26,0.64c-2.84,2.19-1.89,7.13-2.56,10.85
			c-14.09,77.74-92.82,130.51-170.01,113.86c-59.83-12.9-103.64-59.54-113.21-120.78c-0.58-3.71-1.74-4.7-5.41-4.69
			C200.24,400.18,169.61,400.12,138.98,400.12z M378.74,271.73c-62.04-0.12-112.38,49.93-112.51,111.85
			c-0.13,62.02,49.9,112.49,111.73,112.73c62.03,0.24,112.78-50.22,112.84-112.18C490.87,322.22,440.65,271.86,378.74,271.73z"/>
		<path class="st1" d="M298.18,384.02c-0.01-44.16,35.9-80.16,80.11-80.33c44.28-0.17,80.4,35.99,80.35,80.46
			c-0.05,44.27-35.93,80.04-80.25,80.01C334.16,464.11,298.19,428.18,298.18,384.02z M426.52,383.81
			c-0.05-26.37-21.52-47.91-47.87-48.02c-26.43-0.11-48.29,21.62-48.37,48.1c-0.08,26.49,21.64,48.18,48.21,48.14
			C405.18,431.98,426.57,410.51,426.52,383.81z"/>
	</g>
</g>
</svg>
