<?xml version="1.0" encoding="utf-8"?>
<!-- Generator: Adobe Illustrator 25.1.0, SVG Export Plug-In . SVG Version: 6.00 Build 0)  -->
<svg version="1.1" id="Camada_1" xmlns="http://www.w3.org/2000/svg" xmlns:xlink="http://www.w3.org/1999/xlink" x="0px" y="0px"
	 viewBox="0 0 1115 339.12" style="enable-background:new 0 0 1115 339.12;" xml:space="preserve">
<style type="text/css">
	.st0{display:none;opacity:0.85;fill:#FF0A06;}
	.st1{font-family:'ProximaNovaCond-Bold';}
	.st2{font-size:328.3756px;}
	.st3{opacity:0.85;}
	.st4{fill:#FF0A06;}
</style>
<text transform="matrix(1 0 0 1 -2.441406e-04 273.7)" class="st0 st1 st2">Pokédex</text>
<g class="st3">
	<path class="st4" d="M54.94,282.52H11V63.49h80.98c21.75,0,38.59,6.68,50.54,20.04c11.95,13.36,17.92,29.98,17.92,49.87
		c0,19.8-6.01,36.43-18.01,49.89c-12.01,13.45-28.84,20.18-50.5,20.18H54.94V282.52z M86.52,164.67c8.55,0,15.45-2.86,20.68-8.58
		c5.24-5.72,7.86-13.28,7.86-22.69c0-9.41-2.62-16.94-7.86-22.61c-5.24-5.67-12.13-8.5-20.68-8.5H54.94v62.37H86.52z"/>
	<path class="st4" d="M242.77,286.53c-22.48,0-40.11-8.02-52.9-24.06c-12.78-16.04-19.18-35.81-19.18-59.32
		c0-23.5,6.39-43.24,19.18-59.23c12.79-15.99,30.42-23.98,52.9-23.98c22.69,0,40.38,7.94,53.05,23.82
		c12.68,15.88,19.02,35.68,19.02,59.4c0,23.71-6.34,43.54-19.02,59.48C283.15,278.56,265.47,286.53,242.77,286.53z M242.77,251.73
		c10.29,0,18.08-4.6,23.39-13.81c5.3-9.21,7.96-20.82,7.96-34.85c0-14.03-2.65-25.59-7.96-34.69c-5.31-9.1-13.1-13.65-23.39-13.65
		c-10.07,0-17.82,4.6-23.23,13.81c-5.41,9.21-8.12,20.72-8.12,34.53c0,14.03,2.71,25.64,8.12,34.85
		C224.96,247.13,232.7,251.73,242.77,251.73z"/>
	<path class="st4" d="M473.87,282.52h-41.82l-33.25-62.34l-16.94,23.56v38.78h-39.44V63.49h39.44v131.6l48.9-71.15h45.38
		l-52.61,74.16L473.87,282.52z"/>
	<path class="st4" d="M562.98,286.53c-22.49,0-40.49-7.67-54.03-23.01c-13.53-15.34-20.3-35.52-20.3-60.53
		c0-23.62,6.5-43.37,19.5-59.25c13-15.87,30.31-23.81,51.94-23.81c21.51,0,38.28,7.83,50.32,23.49
		c12.04,15.66,18.06,36.1,18.06,61.33v11.38H528.1c1.07,11.4,4.9,20.77,11.49,28.11c6.59,7.34,15.73,11.01,27.41,11.01
		c14.03,0,25.64-5.37,34.85-16.11l18.44,24.35C605.74,278.85,586.63,286.53,562.98,286.53z M590.63,188.56
		c-0.22-9.87-2.84-18.57-7.88-26.09c-5.04-7.52-12.81-11.27-23.31-11.27c-10.29,0-17.98,3.76-23.07,11.27
		c-5.09,7.52-7.85,16.21-8.28,26.09H590.63z M607.47,52.59l-44.48,47.3h-26.36l35.68-47.3H607.47z"/>
	<path class="st4" d="M785.93,282.52h-39.44v-19.94c-10.05,15.97-23.52,23.95-40.41,23.95c-17.96,0-32.31-7.45-43.05-22.34
		c-10.74-14.9-16.11-35.27-16.11-61.11c0-25.25,5.37-45.42,16.11-60.51s25.09-22.63,43.05-22.63c17.74,0,31.21,8.12,40.41,24.37
		V63.49h39.44V282.52z M718.9,251.73c5.24,0,10.47-1.79,15.71-5.38c5.24-3.59,9.19-8,11.87-13.25V173.2
		c-2.67-5.25-6.63-9.63-11.87-13.17c-5.24-3.53-10.48-5.3-15.71-5.3c-10.05,0-17.77,4.44-23.17,13.33c-5.4,8.89-8.1,20.59-8.1,35.09
		c0,14.51,2.7,26.23,8.1,35.17C701.13,247.26,708.85,251.73,718.9,251.73z"/>
	<path class="st4" d="M887.67,286.53c-22.48,0-40.49-7.67-54.03-23.01c-13.53-15.34-20.3-35.52-20.3-60.53
		c0-23.62,6.5-43.37,19.5-59.25c13-15.87,30.31-23.81,51.94-23.81c21.51,0,38.28,7.83,50.32,23.49
		c12.04,15.66,18.06,36.1,18.06,61.33v11.38H852.79c1.07,11.4,4.9,20.77,11.5,28.11c6.59,7.34,15.73,11.01,27.41,11.01
		c14.03,0,25.64-5.37,34.85-16.11l18.44,24.35C930.43,278.85,911.32,286.53,887.67,286.53z M915.32,188.56
		c-0.22-9.87-2.84-18.57-7.88-26.09c-5.04-7.52-12.81-11.27-23.31-11.27c-10.29,0-17.98,3.76-23.07,11.27
		c-5.09,7.52-7.85,16.21-8.28,26.09H915.32z"/>
	<path class="st4" d="M1104,282.52h-40.69l-29.05-53.44l-29.2,53.44h-42.29l46.98-80.81l-44.74-77.76h43.1l26.24,49.79l26.22-49.79
		h40.44l-44.37,77.68L1104,282.52z"/>
</g>
</svg>
